# xmcd
#
# Track frame offsets: 
#        150
#        11006
#        26224
#        36722
#        50314
#        72174
#        84677
#        95940
#        107337
#        122797
#        137850
#        155507
#        166803
#        191304
#        211068
#        222646
#        237167
#        255905
#        280775
#        293701
#
# Disc length: 4092 seconds
#
# Revision: 2
# Processed by: cddbd v1.5.2PL0 Copyright (c) Steve Scherf et al.
# Submitted via: ExactAudioCopy v1.0b3
#
DISCID=230ffa14
DTITLE=Louis Armstrong - His All Stars
DYEAR=1998
DGENRE=Jazz
TTITLE0=Mame
TTITLE1=New Orleans Stomp
TTITLE2=Pretty Little Missy
TTITLE3=Snake Rag
TTITLE4=St. James Infirmary
TTITLE5=Tyree's Blues
TTITLE6=Cheescake
TTITLE7=Hello Dolly
TTITLE8=Mack The Knife
TTITLE9=Blueberry Hill
TTITLE10=Cabaret
TTITLE11=Dippermouth Blues
TTITLE12=I Want A Big Butter and Egg Man
TTITLE13=Indiana
TTITLE14=Tiger Rag
TTITLE15=When The Saints Go Marchin' In
TTITLE16=Someday You'll Be Sorry
TTITLE17=Sweethearts On Parade
TTITLE18=That's My Desire
TTITLE19=Tin Roof Blues
EXTD=
EXTT0=
EXTT1=
EXTT2=
EXTT3=
EXTT4=
EXTT5=
EXTT6=
EXTT7=
EXTT8=
EXTT9=
EXTT10=
EXTT11=
EXTT12=
EXTT13=
EXTT14=
EXTT15=
EXTT16=
EXTT17=
EXTT18=
EXTT19=
PLAYORDER=
